# xmcd
#
# Track frame offsets:
#	150
#	15334
#	32335
#	49154
#	68195
#	85555
#	97671
#	108445
#	125602
#	143921
#	157316
#	171384
#
# Disc length: 2579 seconds
#
# Revision: 1
# Processed by: cddbd v1.5.2PL0 Copyright (c) Steve Scherf et al.
# Submitted via: audiograbber 1.83.01
#
DISCID=940a110c
DTITLE=Eva Cassidy - Somewhere
DYEAR=2008
DGENRE=Country
TTITLE0=Coat Of Many Colours
TTITLE1=My Love Is Like A Red, Red Rose
TTITLE2=Ain't Doin' Too Bad
TTITLE3=Chain Of Fools
TTITLE4=Won't Be Long
TTITLE5=Walkin' After Midnight
TTITLE6=Early One Morning
TTITLE7=A Bold Young Farmer
TTITLE8=If I Give My Heart
TTITLE9=Blue Eyes Crying In The Rain
TTITLE10=Summertime
TTITLE11=Somewhere
EXTD=
EXTT0=
EXTT1=
EXTT2=
EXTT3=
EXTT4=
EXTT5=
EXTT6=
EXTT7=
EXTT8=
EXTT9=
EXTT10=
EXTT11=
PLAYORDER=
